<?xml version="1.0" encoding="UTF-8" standalone="no"?><!-- Generator: Gravit.io --><svg xmlns="http://www.w3.org/2000/svg" xmlns:xlink="http://www.w3.org/1999/xlink" style="isolation:isolate" viewBox="1111.874 352 147.917 83" width="147.917pt" height="83pt"><path d=" M 1253.919 386.085 C 1253.737 385.976 1253.51 385.972 1253.324 386.074 C 1253.137 386.177 1253.02 386.371 1253.014 386.583 L 1252.97 388.852 C 1246.221 387.572 1239.405 389.018 1232.785 390.444 C 1229.657 391.107 1226.478 391.796 1223.287 392.19 C 1224.298 389.919 1224.767 387.445 1224.656 384.962 C 1224.596 382.555 1223.813 380.222 1222.411 378.265 C 1220.944 376.269 1218.644 375.055 1216.169 374.971 L 1216.079 374.971 C 1214.592 375.001 1213.154 375.503 1211.97 376.403 C 1211.216 372.204 1209.311 368.297 1206.466 365.118 C 1205.845 364.399 1205.184 363.715 1204.485 363.071 C 1204.374 359.733 1202.724 356.634 1200.015 354.68 C 1197.113 352.67 1193.597 351.744 1190.081 352.061 C 1187.609 352.196 1185.212 352.953 1183.11 354.262 C 1176.649 353.367 1168.506 352.962 1162.712 356.328 C 1160.469 355.372 1157.896 355.616 1155.872 356.975 C 1151.796 359.52 1151.028 365.089 1152.643 369.006 C 1153.09 370.102 1153.68 371.134 1154.397 372.076 L 1154.181 372.11 C 1150.915 372.598 1147.25 373.437 1144.811 375.975 C 1142.132 379.009 1141.445 383.316 1143.047 387.033 C 1134.962 387.05 1126.888 387.634 1118.886 388.781 C 1118.669 386.984 1117.125 385.644 1115.316 385.684 C 1113.506 385.723 1112.022 387.129 1111.884 388.933 C 1111.746 390.738 1113 392.352 1114.782 392.666 C 1116.564 392.98 1118.294 391.891 1118.781 390.148 C 1127.034 388.952 1135.363 388.359 1143.702 388.374 C 1145.161 390.837 1147.322 392.807 1149.908 394.033 C 1148.055 394.648 1146.316 395.565 1144.763 396.747 C 1141.617 399.041 1139.815 402.745 1139.95 406.635 C 1140.087 408.207 1140.596 409.723 1141.433 411.06 C 1141.179 411.971 1141.07 412.916 1141.111 413.861 C 1141.206 416.716 1142.51 419.396 1144.698 421.232 C 1147.8 423.554 1151.752 424.429 1155.545 423.633 C 1155.518 424.2 1155.546 424.769 1155.63 425.331 C 1156.501 431.306 1163.098 434.763 1168.864 434.983 C 1169.131 434.992 1169.397 435 1169.666 435 C 1173.502 434.972 1177.269 433.979 1180.619 432.111 C 1182.921 434.063 1186.005 434.824 1188.951 434.167 C 1189.583 434.037 1190.204 433.856 1190.808 433.626 C 1192.992 433.58 1195.166 433.327 1197.302 432.869 C 1197.885 433.103 1198.488 433.285 1199.103 433.412 C 1201.666 434.04 1204.365 433.19 1206.106 431.208 C 1206.587 430.588 1206.931 429.873 1207.117 429.112 C 1215.553 424.112 1221.002 415.294 1221.699 405.513 C 1221.946 402.363 1221.666 399.194 1220.869 396.136 C 1221.513 395.346 1222.085 394.499 1222.578 393.607 C 1226.102 393.167 1229.601 392.544 1233.061 391.74 C 1239.915 390.271 1246.432 388.894 1252.938 390.208 L 1252.88 393.104 C 1252.876 393.317 1252.986 393.516 1253.168 393.626 C 1253.351 393.736 1253.578 393.741 1253.765 393.638 L 1259.482 390.485 C 1259.669 390.383 1259.787 390.188 1259.791 389.975 C 1259.796 389.762 1259.686 389.563 1259.504 389.453 L 1253.919 386.085 Z  M 1218.16 392.525 C 1216.474 392.532 1214.79 392.391 1213.128 392.103 C 1212.411 391.977 1211.699 391.819 1210.997 391.639 C 1210.675 390.859 1210.368 390.039 1210.113 389.187 C 1210.279 388.835 1210.423 388.479 1210.567 388.12 C 1211.099 386.815 1211.512 385.466 1211.802 384.087 C 1214.5 386.412 1216.665 389.29 1218.152 392.526 L 1218.16 392.525 Z  M 1191.465 405.777 C 1192.376 405.473 1193.291 405.146 1194.178 404.781 C 1194.243 404.804 1194.305 404.831 1194.368 404.861 C 1194.426 405.105 1194.489 405.349 1194.554 405.591 C 1195.468 409.53 1197.819 412.986 1201.146 415.283 C 1201.176 416.428 1201.088 417.573 1200.883 418.699 C 1200.689 418.591 1200.498 418.49 1200.317 418.395 C 1197.794 417.012 1195.037 416.105 1192.185 415.718 C 1192.647 412.39 1192.399 409.002 1191.457 405.777 L 1191.465 405.777 Z  M 1189.598 415.619 C 1186.702 415.701 1183.913 416.735 1181.663 418.56 C 1181.535 418.458 1181.403 418.362 1181.271 418.266 C 1179.69 417.081 1177.997 416.053 1176.216 415.197 C 1177.824 413.668 1179.133 411.854 1180.078 409.846 C 1180.41 409.666 1180.77 409.49 1181.13 409.322 C 1183.437 408.319 1185.81 407.475 1188.232 406.798 C 1188.883 406.599 1189.54 406.399 1190.199 406.19 C 1191.084 409.251 1191.306 412.465 1190.849 415.619 C 1190.423 415.6 1190.006 415.599 1189.59 415.619 L 1189.598 415.619 Z  M 1190.614 416.946 C 1190.304 418.404 1189.836 419.823 1189.218 421.179 C 1188.792 422.104 1188.297 422.997 1187.736 423.847 C 1186.131 422.354 1184.48 420.818 1182.735 419.404 C 1184.727 417.881 1187.147 417.023 1189.653 416.951 C 1189.963 416.936 1190.278 416.932 1190.605 416.943 L 1190.614 416.946 Z  M 1178.966 429.912 C 1178.409 429.614 1177.871 429.281 1177.356 428.916 C 1174.289 426.84 1172.47 423.363 1172.515 419.66 C 1172.561 418.978 1172.685 418.304 1172.887 417.652 L 1173.053 417.565 C 1173.779 417.155 1174.471 416.686 1175.122 416.165 C 1177.02 417.024 1178.818 418.089 1180.483 419.341 L 1180.691 419.496 C 1180.351 419.86 1180.038 420.248 1179.755 420.657 C 1177.87 423.383 1177.568 426.902 1178.96 429.91 L 1178.966 429.912 Z  M 1164.116 370.784 C 1166.111 369.642 1167.484 367.66 1167.853 365.391 C 1171.882 363.897 1176.363 364.238 1180.12 366.324 L 1180.12 366.324 C 1182.075 368.736 1184.572 370.652 1187.407 371.917 C 1189.453 374.245 1191.022 376.952 1192.028 379.883 C 1190.506 379.751 1188.976 379.689 1187.454 379.658 C 1186.252 379.037 1185.032 378.451 1183.791 377.92 C 1183.871 375.831 1183.066 373.805 1181.575 372.34 C 1180.315 371.273 1178.662 370.791 1177.026 371.013 C 1175.035 371.22 1173.219 372.241 1172.007 373.834 C 1171.665 374.305 1171.377 374.813 1171.149 375.349 Q 1170.545 375.384 1169.956 375.459 C 1168.599 375.626 1167.267 375.955 1165.988 376.44 Q 1165.606 376.227 1165.236 375.996 C 1164.247 375.373 1163.344 374.623 1162.549 373.766 C 1162.496 373.012 1162.56 372.254 1162.738 371.519 C 1163.211 371.303 1163.669 371.056 1164.109 370.78 L 1164.116 370.784 Z  M 1163.434 369.637 C 1164.096 368.317 1165.063 367.175 1166.255 366.304 C 1165.718 367.703 1164.721 368.877 1163.427 369.633 L 1163.434 369.637 Z  M 1208.692 389.088 C 1208.642 389.192 1208.594 389.295 1208.544 389.398 C 1207.391 385.44 1203.399 382.708 1199.961 381.485 C 1198.154 380.859 1196.29 380.414 1194.396 380.157 C 1194.694 379.396 1195.058 378.663 1195.483 377.965 C 1195.92 377.26 1196.4 376.582 1196.919 375.935 C 1200.923 377.487 1204.782 379.389 1208.451 381.619 C 1208.344 381.994 1208.259 382.376 1208.197 382.761 C 1207.908 384.88 1208.075 387.036 1208.687 389.084 L 1208.692 389.088 Z  M 1210.02 392.762 Q 1210.265 393.325 1210.518 393.853 C 1210.879 394.628 1211.258 395.398 1211.636 396.176 C 1212.242 397.407 1212.859 398.665 1213.399 399.94 C 1210.364 400.984 1207.077 401.042 1204.007 400.106 C 1204.13 400.018 1204.251 399.928 1204.372 399.836 C 1206.828 398.087 1208.446 395.396 1208.838 392.407 C 1209.221 392.526 1209.618 392.648 1210.015 392.764 L 1210.02 392.762 Z  M 1209.168 391.103 C 1209.205 391.034 1209.24 390.966 1209.276 390.898 L 1209.377 391.169 L 1209.168 391.103 Z  M 1209.515 382.952 C 1209.545 382.766 1209.582 382.575 1209.625 382.388 C 1209.957 382.627 1210.297 382.871 1210.621 383.123 C 1210.392 384.432 1210.044 385.718 1209.58 386.963 C 1209.339 385.64 1209.315 384.286 1209.51 382.955 L 1209.515 382.952 Z  M 1196.801 395.454 C 1196.003 394.504 1195.334 393.453 1194.809 392.329 C 1194.847 389.963 1194.753 387.598 1194.529 385.242 C 1198.545 387.824 1202.791 390.031 1207.212 391.836 C 1205.594 394.515 1203.558 396.918 1201.182 398.954 C 1199.507 398.085 1198.017 396.897 1196.796 395.457 L 1196.801 395.454 Z  M 1200.072 399.86 C 1199.062 400.64 1198 401.348 1196.892 401.98 C 1196.348 402.159 1195.802 402.328 1195.259 402.493 C 1194.919 400.018 1194.768 397.522 1194.806 395.024 C 1195.106 395.472 1195.43 395.902 1195.777 396.314 C 1196.984 397.743 1198.438 398.945 1200.069 399.864 L 1200.072 399.86 Z  M 1194.306 383.551 C 1194.198 382.887 1194.071 382.243 1193.913 381.593 C 1193.93 381.54 1193.944 381.485 1193.959 381.427 C 1195.85 381.671 1197.711 382.108 1199.513 382.731 C 1202.842 383.918 1206.752 386.623 1207.431 390.488 C 1203.114 388.688 1198.964 386.51 1195.03 383.981 L 1194.306 383.551 Z  M 1206.782 394.88 C 1206.034 396.416 1204.928 397.75 1203.557 398.77 C 1203.311 398.958 1203.059 399.137 1202.804 399.308 C 1204.268 397.965 1205.599 396.483 1206.777 394.883 L 1206.782 394.88 Z  M 1194.335 377.258 C 1193.923 377.936 1193.564 378.644 1193.261 379.377 C 1192.484 377.134 1191.392 375.013 1190.016 373.079 C 1191.548 373.734 1193.091 374.362 1194.598 374.977 L 1195.626 375.396 C 1195.163 375.994 1194.734 376.617 1194.338 377.261 L 1194.335 377.258 Z  M 1192.53 381.588 C 1192.464 381.853 1192.404 382.121 1192.351 382.388 Q 1191.224 381.724 1190.082 381.075 C 1190.871 381.118 1191.659 381.175 1192.443 381.253 C 1192.476 381.369 1192.512 381.478 1192.534 381.591 L 1192.53 381.588 Z  M 1184.33 379.609 L 1184.214 379.609 L 1183.716 379.609 C 1183.716 379.522 1183.733 379.444 1183.738 379.351 C 1183.942 379.434 1184.136 379.525 1184.334 379.613 L 1184.33 379.609 Z  M 1182.093 379.59 C 1178.621 379.625 1175.155 379.291 1171.753 378.594 C 1171.785 377.932 1171.896 377.277 1172.085 376.642 C 1175.519 376.668 1178.916 377.355 1182.09 378.665 L 1182.437 378.803 C 1182.423 379.075 1182.4 379.342 1182.373 379.598 L 1182.093 379.59 Z  M 1182.174 380.917 C 1182.156 381.009 1182.138 381.102 1182.12 381.193 C 1181.827 381.092 1181.537 380.997 1181.243 380.902 L 1182.073 380.917 L 1182.174 380.917 Z  M 1172.641 375.294 C 1172.772 375.056 1172.917 374.825 1173.078 374.606 C 1174.064 373.31 1175.543 372.481 1177.162 372.315 C 1178.427 372.137 1179.708 372.504 1180.687 373.324 C 1181.769 374.388 1182.391 375.833 1182.422 377.349 C 1179.311 376.09 1175.999 375.397 1172.645 375.304 L 1172.641 375.294 Z  M 1183.097 382.998 C 1184.135 383.437 1185.128 383.977 1186.061 384.61 C 1187.624 385.542 1188.822 386.981 1189.455 388.688 C 1190.007 390.294 1189.411 392.07 1188.001 393.018 C 1187.183 393.423 1186.221 393.416 1185.409 392.999 C 1183.986 392.298 1182.948 391.001 1182.576 389.459 C 1182.278 387.297 1182.455 385.096 1183.095 383.01 L 1183.097 382.998 Z  M 1170.437 379.679 C 1170.527 381.112 1170.883 382.516 1171.486 383.818 C 1171.553 383.961 1171.621 384.102 1171.69 384.242 C 1170.901 383.199 1169.973 382.269 1168.932 381.478 C 1168.504 381.146 1168.064 380.814 1167.623 380.496 C 1166.695 379.842 1165.808 379.133 1164.967 378.371 C 1166.771 378.894 1168.625 379.302 1170.439 379.686 L 1170.437 379.679 Z  M 1167.689 377.266 C 1168.486 377.037 1169.299 376.871 1170.122 376.768 C 1170.311 376.743 1170.5 376.723 1170.691 376.705 C 1170.57 377.21 1170.489 377.724 1170.449 378.242 C 1169.508 377.979 1168.586 377.655 1167.687 377.273 L 1167.689 377.266 Z  M 1163.751 376.591 C 1163.634 376.552 1163.518 376.513 1163.402 376.471 C 1163.354 376.388 1163.306 376.305 1163.259 376.219 C 1163.417 376.352 1163.583 376.478 1163.749 376.597 L 1163.751 376.591 Z  M 1163.737 379.035 C 1164.702 379.958 1165.736 380.806 1166.831 381.57 C 1167.262 381.89 1167.694 382.205 1168.112 382.53 C 1169.938 383.949 1172.06 386.182 1171.805 388.718 C 1171.75 389.243 1171.6 389.754 1171.36 390.225 C 1167.667 388.888 1163.802 388.086 1159.882 387.841 Q 1159.114 387.768 1158.345 387.699 C 1158.507 385.889 1159.099 384.143 1160.071 382.608 C 1161.026 381.173 1162.275 379.958 1163.736 379.042 L 1163.737 379.035 Z  M 1172.613 385.82 C 1174.123 387.941 1175.942 389.823 1178.01 391.405 C 1178.684 391.949 1179.371 392.482 1180.058 393.013 C 1181.968 394.41 1183.762 395.959 1185.422 397.645 C 1186.788 399.119 1187.929 400.786 1188.81 402.592 C 1186.276 402.736 1183.797 403.39 1181.522 404.514 C 1181.707 402.404 1181.351 400.282 1180.486 398.348 C 1178.828 394.966 1176.028 392.279 1172.58 390.761 C 1172.874 390.16 1173.061 389.513 1173.133 388.849 C 1173.225 387.813 1173.046 386.771 1172.611 385.827 L 1172.613 385.82 Z  M 1183.144 405.249 C 1185.125 404.407 1187.249 403.951 1189.402 403.907 C 1189.427 403.968 1189.452 404.033 1189.477 404.093 C 1187.391 404.611 1185.275 405 1183.142 405.258 L 1183.144 405.249 Z  M 1185.301 406.298 C 1183.771 406.777 1182.269 407.343 1180.802 407.991 Q 1181.003 407.382 1181.155 406.761 C 1182.554 406.685 1183.938 406.524 1185.308 406.306 L 1185.301 406.298 Z  M 1179.263 398.898 C 1180.149 400.894 1180.44 403.103 1180.103 405.261 C 1179.972 405.334 1179.841 405.41 1179.713 405.485 C 1179.019 405.502 1178.319 405.495 1177.619 405.465 C 1173.333 405.349 1169.156 404.089 1165.521 401.814 C 1166.811 399.822 1166.653 397.224 1165.133 395.403 C 1166.731 395.157 1168.272 394.624 1169.681 393.829 C 1170.524 393.328 1171.265 392.672 1171.866 391.897 C 1175.09 393.276 1177.716 395.761 1179.27 398.904 L 1179.263 398.898 Z  M 1159.743 389.169 C 1163.442 389.402 1167.092 390.138 1170.592 391.356 C 1170.131 391.88 1169.592 392.328 1168.992 392.684 C 1167.428 393.527 1165.715 394.056 1163.948 394.243 C 1163.255 393.71 1162.476 393.299 1161.645 393.029 C 1160.694 392.727 1159.705 392.559 1158.707 392.531 C 1158.419 391.383 1158.272 390.204 1158.27 389.02 C 1158.768 389.083 1159.26 389.129 1159.749 389.177 L 1159.743 389.169 Z  M 1161.236 394.304 C 1161.424 394.364 1161.606 394.432 1161.784 394.51 Q 1160.552 394.621 1159.401 394.633 C 1159.301 394.392 1159.208 394.148 1159.122 393.902 C 1159.841 393.952 1160.552 394.09 1161.238 394.312 L 1161.236 394.304 Z  M 1163.56 395.652 C 1164.295 396.304 1164.798 397.178 1164.995 398.141 C 1165.158 399.146 1164.956 400.176 1164.426 401.045 C 1163.496 400.342 1162.64 399.543 1161.874 398.664 C 1161.157 397.836 1160.538 396.93 1160.026 395.962 C 1161.208 395.921 1162.387 395.82 1163.558 395.66 L 1163.56 395.652 Z  M 1164.745 402.894 C 1168.592 405.323 1173.022 406.671 1177.57 406.798 L 1177.687 406.798 C 1175.203 408.63 1172.843 410.626 1170.625 412.772 L 1170.046 413.308 C 1168.587 413.117 1167.109 413.134 1165.656 413.358 C 1162.353 413.933 1159.403 415.766 1157.424 418.472 C 1155.567 418.159 1153.741 417.688 1151.964 417.066 C 1148.407 415.919 1145.258 413.769 1142.894 410.875 C 1143.211 410.029 1143.715 409.266 1144.369 408.643 C 1146.514 406.618 1149.869 406.31 1152.206 406.253 C 1152.752 406.242 1153.298 406.238 1153.849 406.235 C 1156.336 406.364 1158.826 406.056 1161.206 405.327 C 1162.565 404.819 1163.778 403.987 1164.741 402.903 L 1164.745 402.894 Z  M 1158.106 419.929 C 1159.13 420.071 1160.161 420.159 1161.195 420.193 C 1160.308 420.686 1159.387 421.116 1158.44 421.479 C 1158.05 421.625 1157.643 421.763 1157.223 421.886 C 1157.435 421.203 1157.729 420.549 1158.098 419.937 L 1158.106 419.929 Z  M 1158.981 418.696 C 1160.729 416.584 1163.17 415.162 1165.868 414.681 C 1166.811 414.534 1167.766 414.484 1168.718 414.533 C 1167.038 416.092 1165.254 417.534 1163.377 418.848 C 1161.908 418.921 1160.434 418.872 1158.973 418.704 L 1158.981 418.696 Z  M 1170.485 414.726 C 1171.158 414.839 1171.823 414.991 1172.477 415.182 C 1172.211 415.673 1171.981 416.182 1171.788 416.706 C 1169.972 417.621 1168.024 418.247 1166.014 418.563 C 1167.574 417.361 1169.052 416.047 1170.479 414.734 L 1170.485 414.726 Z  M 1171.699 413.606 C 1174.169 411.179 1176.857 408.983 1179.728 407.047 C 1179.546 407.669 1179.324 408.279 1179.064 408.872 C 1176.741 410.117 1174.733 411.877 1173.196 414.017 Q 1172.457 413.786 1171.692 413.614 L 1171.699 413.606 Z  M 1177.765 411.282 C 1176.957 412.511 1175.989 413.627 1174.887 414.601 L 1174.517 414.455 C 1175.43 413.241 1176.523 412.173 1177.758 411.289 L 1177.765 411.282 Z  M 1190.287 402.594 C 1189.315 400.445 1188.004 398.467 1186.403 396.735 C 1184.694 394.996 1182.847 393.399 1180.88 391.959 C 1180.199 391.434 1179.519 390.908 1178.853 390.369 C 1176.295 388.491 1174.193 386.061 1172.703 383.259 C 1172.22 382.219 1171.915 381.105 1171.8 379.965 C 1172.887 380.194 1173.957 380.423 1174.971 380.673 L 1176.425 381.019 C 1178.259 381.416 1180.069 381.915 1181.847 382.512 C 1181.834 382.572 1181.821 382.633 1181.808 382.696 C 1181.115 384.98 1180.936 387.388 1181.283 389.748 C 1181.753 391.693 1183.063 393.329 1184.858 394.213 C 1186.048 394.811 1187.453 394.806 1188.639 394.198 C 1190.616 392.956 1191.486 390.521 1190.743 388.308 C 1190.026 386.306 1188.643 384.613 1186.825 383.511 C 1185.749 382.783 1184.6 382.168 1183.397 381.676 C 1183.436 381.488 1183.472 381.302 1183.51 381.115 C 1183.52 381.053 1183.532 380.994 1183.545 380.934 L 1184.219 380.934 C 1185.182 380.934 1186.152 380.949 1187.123 380.965 C 1188.826 381.857 1190.499 382.821 1192.147 383.8 C 1191.812 386.799 1192.274 389.833 1193.485 392.596 C 1193.485 392.824 1193.485 393.049 1193.485 393.277 L 1193.485 393.555 C 1193.395 396.668 1193.562 399.784 1193.983 402.869 L 1193.319 403.062 C 1192.326 402.796 1191.307 402.641 1190.28 402.601 L 1190.287 402.594 Z  M 1195.976 405.716 C 1198.67 407.412 1200.488 410.201 1200.955 413.35 C 1200.965 413.413 1200.973 413.476 1200.985 413.539 C 1198.542 411.518 1196.789 408.785 1195.969 405.722 L 1195.976 405.716 Z  M 1195.787 404.056 Q 1196.625 403.654 1197.436 403.196 C 1199.217 402.641 1200.936 401.909 1202.57 401.009 C 1206.21 402.379 1210.215 402.432 1213.89 401.16 C 1214.231 402.065 1214.509 402.994 1214.72 403.938 C 1215.384 406.987 1215.16 411.141 1212.496 413.659 C 1209.64 416.001 1205.633 416.332 1202.432 414.488 C 1202.395 414.025 1202.342 413.572 1202.266 413.123 C 1201.684 409.238 1199.271 405.87 1195.78 404.069 L 1195.787 404.056 Z  M 1214.629 399.409 C 1214.076 398.096 1213.449 396.818 1212.831 395.564 C 1212.456 394.8 1212.081 394.038 1211.724 393.27 C 1211.704 393.233 1211.688 393.194 1211.671 393.155 C 1212.076 393.247 1212.484 393.321 1212.894 393.399 C 1214.819 393.728 1216.771 393.876 1218.723 393.841 C 1218.977 394.487 1219.199 395.147 1219.397 395.816 C 1218.066 397.33 1216.441 398.557 1214.622 399.424 L 1214.629 399.409 Z  M 1210.826 381.598 C 1210.571 381.412 1210.312 381.226 1210.048 381.047 C 1210.281 380.475 1210.571 379.929 1210.914 379.417 C 1210.923 380.15 1210.891 380.883 1210.82 381.613 L 1210.826 381.598 Z  M 1205.457 365.99 C 1208.343 369.199 1210.193 373.203 1210.768 377.48 C 1209.992 378.318 1209.363 379.28 1208.906 380.326 C 1205.363 378.192 1201.646 376.36 1197.795 374.85 C 1198.221 374.352 1198.66 373.854 1199.094 373.356 C 1201.366 370.788 1203.711 368.141 1204.332 364.771 C 1204.726 365.164 1205.102 365.571 1205.457 365.99 Z  M 1190.172 353.394 C 1193.374 353.09 1196.581 353.925 1199.227 355.754 C 1201.234 357.217 1202.601 359.396 1203.044 361.84 C 1197.825 357.975 1191.719 355.483 1185.286 354.592 C 1186.832 353.902 1188.49 353.496 1190.18 353.394 L 1190.172 353.394 Z  M 1183.431 355.653 C 1183.993 355.736 1184.491 355.819 1184.904 355.882 C 1190.358 356.751 1197.621 358.811 1203.134 363.65 C 1203.134 363.697 1203.134 363.742 1203.124 363.786 C 1202.815 367.144 1200.523 369.736 1198.092 372.476 C 1197.561 373.079 1197.02 373.688 1196.497 374.312 L 1195.098 373.741 C 1192.892 372.841 1190.607 371.915 1188.415 370.92 L 1188.209 370.828 C 1186.17 368.55 1183.728 366.669 1181.004 365.28 C 1180.631 364.72 1180.338 364.111 1180.133 363.469 C 1179.624 361.699 1179.928 359.793 1180.963 358.268 C 1181.6 357.236 1182.443 356.346 1183.439 355.654 L 1183.431 355.653 Z  M 1181.617 355.404 C 1180.915 356.037 1180.309 356.769 1179.818 357.576 C 1178.581 359.425 1178.229 361.728 1178.858 363.861 C 1178.916 364.042 1178.98 364.225 1179.051 364.402 C 1176.989 363.573 1174.792 363.135 1172.57 363.111 C 1170.981 363.099 1169.403 363.373 1167.911 363.919 C 1167.741 361.187 1166.34 358.68 1164.102 357.103 C 1169.478 354.426 1176.883 354.821 1181.623 355.405 L 1181.617 355.404 Z  M 1162.785 357.852 C 1165.023 359.143 1166.453 361.481 1166.582 364.062 C 1166.582 364.215 1166.582 364.364 1166.582 364.515 C 1164.252 365.795 1162.491 367.907 1161.653 370.43 L 1161.618 370.535 C 1161.238 370.686 1160.851 370.818 1160.456 370.938 C 1159.485 369.298 1158.894 367.462 1158.727 365.564 C 1158.485 362.941 1159.568 360.371 1161.613 358.711 C 1161.988 358.402 1162.382 358.115 1162.791 357.853 L 1162.785 357.852 Z  M 1161.256 374.322 C 1161.322 374.817 1161.438 375.305 1161.601 375.777 C 1159.973 375.099 1158.461 374.169 1157.12 373.022 C 1158.04 372.878 1158.959 372.709 1159.86 372.486 C 1160.286 373.129 1160.755 373.743 1161.263 374.324 L 1161.256 374.322 Z  M 1161.196 372.105 L 1161.264 372.081 C 1161.264 372.116 1161.256 372.149 1161.251 372.184 L 1161.196 372.105 Z  M 1153.871 368.498 C 1152.297 364.681 1153.512 360.021 1156.574 358.109 C 1157.575 357.458 1158.739 357.104 1159.932 357.087 C 1160.393 357.086 1160.852 357.142 1161.299 357.252 C 1161.117 357.39 1160.936 357.531 1160.76 357.679 C 1158.375 359.604 1157.112 362.594 1157.394 365.645 C 1157.565 367.625 1158.158 369.546 1159.132 371.278 C 1158.085 371.515 1157.012 371.688 1155.944 371.844 C 1155.076 370.85 1154.379 369.721 1153.879 368.5 L 1153.871 368.498 Z  M 1144.454 386.935 C 1142.832 383.63 1143.349 379.674 1145.767 376.898 C 1147.924 374.657 1151.177 373.91 1154.374 373.427 L 1155.421 373.273 C 1157.429 375.232 1159.857 376.708 1162.521 377.588 C 1162.624 377.741 1162.73 377.885 1162.838 378.03 C 1161.289 379.034 1159.963 380.347 1158.943 381.887 C 1157.845 383.605 1157.171 385.559 1156.978 387.589 Q 1150.746 387.091 1144.502 387.041 C 1144.494 387.007 1144.477 386.972 1144.461 386.937 L 1144.454 386.935 Z  M 1157.927 394.616 C 1156.824 394.57 1155.725 394.438 1154.643 394.221 L 1155.25 394.125 C 1156.052 393.999 1156.86 393.919 1157.671 393.884 C 1157.758 394.13 1157.844 394.375 1157.934 394.618 L 1157.927 394.616 Z  M 1145.269 388.381 Q 1151.089 388.454 1156.905 388.922 C 1156.893 390.147 1157.028 391.369 1157.305 392.563 C 1156.503 392.609 1155.74 392.704 1155.051 392.805 C 1153.984 392.961 1152.926 393.171 1151.881 393.434 C 1149.21 392.475 1146.902 390.71 1145.276 388.384 L 1145.269 388.381 Z  M 1141.271 406.522 C 1141.17 403.079 1142.782 399.81 1145.574 397.793 C 1147.438 396.401 1149.561 395.394 1151.818 394.832 C 1151.984 394.888 1152.15 394.943 1152.316 394.998 C 1154.324 395.616 1156.41 395.943 1158.511 395.969 C 1159.133 397.256 1159.923 398.455 1160.86 399.535 C 1161.692 400.491 1162.622 401.358 1163.633 402.123 C 1162.835 402.997 1161.841 403.671 1160.733 404.088 C 1158.498 404.76 1156.164 405.041 1153.833 404.917 C 1153.275 404.917 1152.719 404.917 1152.173 404.936 C 1149.614 404.997 1145.926 405.346 1143.448 407.687 C 1142.898 408.209 1142.433 408.814 1142.072 409.481 C 1141.63 408.553 1141.36 407.551 1141.277 406.526 L 1141.271 406.522 Z  M 1155.72 422.251 C 1152.185 423.099 1148.456 422.344 1145.529 420.188 C 1143.65 418.586 1142.527 416.269 1142.436 413.801 C 1142.418 413.377 1142.435 412.952 1142.486 412.53 C 1144.919 415.243 1148.038 417.25 1151.516 418.339 C 1153.193 418.927 1154.913 419.385 1156.661 419.708 C 1156.23 420.508 1155.915 421.365 1155.726 422.254 L 1155.72 422.251 Z  M 1168.907 433.654 C 1163.679 433.453 1157.71 430.401 1156.941 425.14 C 1156.855 424.548 1156.843 423.948 1156.906 423.353 C 1157.582 423.184 1158.247 422.976 1158.898 422.73 C 1160.627 422.059 1162.274 421.195 1163.81 420.156 C 1166.395 420.012 1168.935 419.42 1171.317 418.407 C 1171.245 418.788 1171.197 419.173 1171.171 419.56 C 1171.069 423.73 1173.104 427.663 1176.566 429.988 C 1177.345 430.543 1178.17 431.03 1179.033 431.442 C 1175.892 432.998 1172.417 433.759 1168.914 433.657 L 1168.907 433.654 Z  M 1180.833 421.408 C 1181.101 421.02 1181.399 420.654 1181.725 420.314 C 1183.542 421.771 1185.266 423.378 1186.946 424.944 C 1185.279 427.141 1183.214 429.005 1180.86 430.439 C 1178.924 427.743 1178.916 424.114 1180.84 421.409 L 1180.833 421.408 Z  M 1190.541 432.301 C 1189.661 432.301 1188.78 432.291 1187.903 432.23 C 1185.942 432.116 1184 431.774 1182.116 431.213 C 1184.343 429.769 1186.307 427.957 1187.925 425.854 C 1189.458 427.279 1191.037 428.715 1192.695 430.031 C 1192.952 430.234 1193.218 430.439 1193.491 430.645 C 1192.581 431.316 1191.593 431.873 1190.547 432.303 L 1190.541 432.301 Z  M 1188.715 424.763 C 1190.294 422.427 1191.391 419.799 1191.945 417.034 C 1194.661 417.393 1197.286 418.254 1199.687 419.574 Q 1200.15 419.818 1200.576 420.072 C 1199.775 423.225 1198.183 426.123 1195.951 428.491 Q 1195.287 429.191 1194.577 429.792 C 1194.212 429.528 1193.861 429.258 1193.526 428.989 C 1191.867 427.668 1190.267 426.207 1188.717 424.765 L 1188.715 424.763 Z  M 1193.735 432.104 C 1194.039 431.9 1194.341 431.684 1194.642 431.453 C 1194.866 431.601 1195.095 431.745 1195.327 431.887 C 1194.801 431.973 1194.27 432.044 1193.737 432.097 L 1193.735 432.104 Z  M 1205.052 430.393 C 1203.761 431.819 1201.838 432.499 1199.937 432.2 C 1201.563 431.714 1203.15 431.11 1204.687 430.393 C 1204.875 430.305 1205.061 430.215 1205.247 430.124 C 1205.187 430.219 1205.125 430.307 1205.054 430.395 L 1205.052 430.393 Z  M 1205.935 428.255 Q 1205.051 428.753 1204.123 429.183 C 1201.98 430.185 1199.735 430.954 1197.428 431.477 C 1196.837 431.213 1196.266 430.907 1195.72 430.56 Q 1196.328 430.021 1196.917 429.409 C 1199.207 426.976 1200.869 424.02 1201.756 420.798 C 1203.088 421.643 1204.216 422.773 1205.057 424.106 C 1205.814 425.35 1206.124 426.814 1205.937 428.257 L 1205.935 428.255 Z  M 1220.364 405.42 C 1219.723 414.4 1214.89 422.554 1207.32 427.427 C 1207.311 426.017 1206.925 424.634 1206.201 423.424 C 1205.157 421.79 1203.749 420.419 1202.087 419.421 C 1202.319 418.299 1202.448 417.159 1202.472 416.014 C 1206.065 417.781 1210.365 417.241 1213.409 414.64 C 1216.476 411.738 1216.77 407.067 1216.018 403.664 C 1215.788 402.645 1215.486 401.643 1215.115 400.665 C 1216.857 399.848 1218.438 398.724 1219.782 397.346 C 1220.379 399.994 1220.576 402.716 1220.366 405.422 L 1220.364 405.42 Z  M 1220.396 394.573 C 1220.31 394.316 1220.222 394.063 1220.129 393.808 C 1220.401 393.794 1220.673 393.776 1220.945 393.758 C 1220.773 394.037 1220.588 394.311 1220.394 394.574 L 1220.396 394.573 Z  M 1221.735 392.354 C 1221.025 392.419 1220.315 392.468 1219.604 392.495 C 1217.925 388.624 1215.336 385.216 1212.056 382.562 C 1212.266 381.033 1212.305 379.486 1212.172 377.948 C 1213.232 376.931 1214.632 376.345 1216.101 376.303 C 1218.188 376.337 1220.134 377.365 1221.339 379.07 C 1222.571 380.816 1223.258 382.888 1223.313 385.025 C 1223.424 387.563 1222.881 390.087 1221.737 392.356 L 1221.735 392.354 Z " fill="rgb(255,255,255)"/></svg>