<?xml version="1.0" encoding="UTF-8" standalone="no"?><!-- Generator: Gravit.io --><svg xmlns="http://www.w3.org/2000/svg" xmlns:xlink="http://www.w3.org/1999/xlink" style="isolation:isolate" viewBox="56 443 47.369 117" width="47.369pt" height="117pt"><path d=" M 82.205 554.77 C 82.416 554.42 82.17 553.972 81.762 553.965 L 79.823 553.926 C 80.856 547.45 75.845 542.336 70.964 537.38 C 67.545 533.908 64.008 530.316 62.773 526.385 C 61.922 523.668 62.038 520.834 62.542 518.241 C 62.714 518.388 62.892 518.533 63.071 518.675 C 68.828 523.225 76.608 524.748 84.418 522.853 C 92.28 520.945 98.73 515.932 101.674 509.443 C 106.296 499.245 101.137 486.477 90.173 480.973 C 87.89 479.826 85.037 478.917 82.149 478.735 C 78.94 473.597 79.437 467.91 79.957 461.923 C 80.324 457.725 80.683 453.401 79.682 449.246 C 81.298 449.119 82.574 447.783 82.574 446.136 C 82.574 444.403 81.171 443 79.438 443 C 77.708 443 76.303 444.403 76.303 446.136 C 76.303 447.54 77.234 448.714 78.507 449.113 C 79.586 453.216 79.221 457.589 78.853 461.827 C 78.357 467.527 77.845 473.394 80.844 478.706 C 78.791 478.742 76.761 479.184 74.949 480.214 C 71.91 481.937 70.36 484.8 69.572 487.326 C 65.809 488.513 62.432 490.615 60.012 493.392 C 57.395 496.399 56 500.2 56 504.239 C 56 504.787 56.026 505.34 56.077 505.894 C 56.481 510.222 58.461 514.309 61.587 517.371 C 60.948 520.282 60.726 523.557 61.715 526.715 C 63.031 530.904 66.661 534.593 70.173 538.157 C 75.096 543.155 79.754 547.912 78.7 553.904 L 75.951 553.849 C 75.542 553.841 75.279 554.277 75.475 554.636 L 78.28 559.725 C 78.478 560.084 78.988 560.093 79.199 559.744 L 82.205 554.77 Z  M 70.867 486.957 C 71.648 484.831 73.033 482.574 75.495 481.178 C 77.33 480.137 79.42 479.756 81.526 479.813 C 81.759 480.161 82.009 480.507 82.276 480.849 C 82.775 481.487 83.336 482.131 83.905 482.787 C 85.636 484.78 87.411 486.823 87.813 489.08 C 84.654 487.352 80.979 486.332 77.239 486.235 C 75.082 486.18 72.928 486.432 70.867 486.957 Z  M 57.182 505.792 C 56.773 501.443 58.079 497.302 60.849 494.12 C 62.989 491.661 65.93 489.762 69.224 488.608 C 69.201 488.709 69.178 488.81 69.156 488.909 C 68.779 490.67 68.629 492.471 68.485 494.211 C 68.36 495.706 68.231 497.254 67.957 498.744 C 67.352 502.051 66.006 505.289 64.704 508.419 C 64.166 509.709 63.629 511.002 63.139 512.302 C 62.715 513.421 62.269 514.709 61.897 516.103 C 59.227 513.285 57.54 509.639 57.182 505.792 Z  M 62.811 517.002 C 63.2 515.411 63.705 513.944 64.176 512.692 C 64.663 511.403 65.195 510.123 65.727 508.844 C 67.052 505.66 68.421 502.367 69.048 498.946 C 69.331 497.4 69.463 495.826 69.589 494.303 C 69.731 492.597 69.879 490.833 70.241 489.14 C 70.305 488.842 70.38 488.53 70.467 488.211 C 72.629 487.591 74.917 487.285 77.209 487.344 C 81.019 487.442 84.751 488.542 87.884 490.392 C 87.862 490.691 87.813 490.995 87.735 491.302 C 87.048 494.005 84.296 495.669 81.381 497.431 C 78.853 498.959 76.239 500.54 74.878 502.929 C 73.796 504.83 73.739 507.083 74.716 509.278 C 75.969 512.094 78.68 514.267 81.793 514.95 C 87.244 516.144 93.458 513.323 95.941 508.527 C 98.158 504.245 97.403 498.645 94.006 494.264 C 92.656 492.525 90.949 491.011 89.003 489.78 C 88.892 486.835 86.707 484.322 84.742 482.059 C 84.185 481.419 83.639 480.789 83.152 480.166 C 83.087 480.083 83.023 479.999 82.959 479.917 C 85.379 480.198 87.742 480.993 89.676 481.963 C 100.114 487.203 105.049 499.323 100.662 508.985 C 97.86 515.166 91.689 519.946 84.156 521.776 C 76.681 523.59 69.247 522.142 63.759 517.807 C 63.433 517.548 63.117 517.28 62.811 517.002 Z  M 88.921 491.049 C 90.545 492.147 91.977 493.458 93.13 494.944 C 96.26 498.981 96.976 504.113 94.956 508.017 C 92.731 512.316 86.932 514.941 82.03 513.868 C 79.257 513.259 76.843 511.328 75.731 508.828 C 74.899 506.961 74.939 505.061 75.841 503.479 C 77.06 501.337 79.548 499.834 81.955 498.379 C 84.93 496.58 88.01 494.719 88.809 491.574 C 88.854 491.398 88.892 491.223 88.921 491.049 Z " fill="rgb(255,255,255)"/></svg>