<?xml version="1.0" encoding="UTF-8" standalone="no"?><!-- Generator: Gravit.io --><svg xmlns="http://www.w3.org/2000/svg" xmlns:xlink="http://www.w3.org/1999/xlink" style="isolation:isolate" viewBox="65 614 18.067 90" width="18.067pt" height="90pt"><path d=" M 80.099 699.387 C 80.285 699.08 80.068 698.685 79.708 698.678 L 77.921 698.642 C 77.503 696.767 76.794 694.988 75.731 693.235 C 74.704 691.545 73.514 689.929 72.365 688.367 C 70.632 686.013 68.841 683.58 67.629 680.904 C 64.74 674.529 66.347 668.757 68.049 662.648 C 69.362 657.936 70.719 653.064 69.877 647.846 L 69.766 647.184 C 69.543 645.899 69.335 644.679 69.589 643.507 C 69.8 642.549 70.284 641.851 71.031 641.434 C 72.094 640.84 73.695 640.823 75.311 641.389 C 78.092 642.365 78.498 644.242 78.838 647.217 C 79.593 653.777 77.183 660.609 72.553 665.018 C 72.328 665.231 72.097 665.443 71.866 665.653 C 70.823 666.606 69.745 667.593 69.132 668.93 C 68.654 669.98 68.612 671.27 69.017 672.303 C 69.333 673.101 69.882 673.68 70.607 673.977 C 71.796 674.466 73.261 674.119 74.845 672.973 C 80.165 669.129 83.261 661.845 83.058 653.531 C 82.938 647.859 81.501 642.279 80.113 636.881 C 79.727 635.391 79.343 633.899 78.987 632.406 C 78.202 629.127 77.293 624.8 77.216 620.408 C 77.21 620.104 77.219 619.797 77.236 619.488 C 77.376 619.509 77.514 619.53 77.659 619.53 C 79.187 619.53 80.424 618.293 80.424 616.765 C 80.424 615.239 79.187 614 77.659 614 C 76.133 614 74.894 615.239 74.894 616.765 C 74.894 617.762 75.427 618.628 76.217 619.114 C 76.184 619.553 76.159 619.992 76.162 620.427 C 76.243 624.919 77.167 629.32 77.963 632.651 C 78.323 634.149 78.707 635.647 79.093 637.144 C 80.467 642.484 81.889 648.003 82.007 653.554 C 82.167 661.521 79.269 668.479 74.23 672.12 C 73.341 672.763 72.061 673.437 71.006 673.005 C 70.433 672.769 70.141 672.283 69.997 671.916 C 69.693 671.154 69.731 670.151 70.09 669.368 C 70.613 668.225 71.566 667.354 72.577 666.431 C 72.813 666.214 73.048 665.998 73.278 665.779 C 78.141 661.148 80.672 653.991 79.884 647.098 C 79.533 644.017 78.997 641.568 75.659 640.397 C 73.763 639.732 71.84 639.776 70.518 640.515 C 69.511 641.078 68.834 642.035 68.562 643.282 C 68.26 644.658 68.5 646.033 68.728 647.362 L 68.838 648.012 C 69.643 653.003 68.317 657.76 67.036 662.366 C 66.027 665.983 65 669.673 65 673.502 C 65 676.047 65.453 678.654 66.669 681.34 C 67.927 684.115 69.753 686.594 71.516 688.992 C 72.654 690.534 73.829 692.132 74.831 693.781 C 75.787 695.356 76.437 696.95 76.838 698.62 L 74.583 698.576 C 74.223 698.568 73.991 698.953 74.164 699.269 L 76.638 703.757 C 76.812 704.073 77.262 704.083 77.448 703.774 L 80.099 699.387 Z " fill="rgb(255,255,255)"/></svg>