<?xml version="1.0" encoding="UTF-8" standalone="no"?><!-- Generator: Gravit.io --><svg xmlns="http://www.w3.org/2000/svg" xmlns:xlink="http://www.w3.org/1999/xlink" style="isolation:isolate" viewBox="56 306 49.019 90" width="49.019pt" height="90pt"><path d=" M 82.747 392.425 C 82.892 392.187 82.723 391.881 82.444 391.875 L 80.427 391.835 C 79.936 388.479 80.649 385.205 81.344 382.024 C 82.138 378.39 82.962 374.629 82.022 370.727 C 82.014 370.695 82.007 370.665 81.999 370.634 C 85.966 371.374 90.361 370.629 94.063 368.449 C 94.909 367.95 95.725 367.378 96.5 366.741 C 98.954 366.523 101.251 365.308 102.521 363.371 C 103.669 361.619 103.875 359.359 103.297 357.273 C 103.553 356.636 103.787 355.984 103.994 355.319 C 105.501 350.498 105.341 345.921 103.546 342.431 C 102.35 340.106 100.092 338.061 97.467 337.18 C 97.494 335.264 97.008 333.318 95.987 331.612 C 94.032 328.347 90.259 326.095 86.14 325.736 C 84.778 325.617 83.383 325.692 81.992 325.953 L 81.992 325.912 C 81.992 324.424 82.045 322.968 82.096 321.557 C 82.235 317.702 82.36 314.031 81.442 310.195 C 82.339 309.939 83 309.123 83 308.143 C 83 306.96 82.04 306 80.856 306 C 79.673 306 78.714 306.96 78.714 308.143 C 78.714 309.247 79.551 310.145 80.623 310.263 C 81.547 314.044 81.42 317.693 81.281 321.527 C 81.226 323.013 81.171 324.554 81.177 326.127 C 79.055 326.634 76.958 327.569 75.012 328.893 C 74.305 329.376 73.632 329.901 72.994 330.464 C 70.53 329.841 67.714 330.156 65.32 331.453 C 60.261 334.196 56.822 339.908 56.122 346.733 C 56.04 347.523 56 348.316 56 349.11 C 56 354.331 57.733 359.619 60.987 364.228 C 64.339 368.976 70.071 372.801 76.104 369.298 C 76.407 369.123 76.7 368.926 76.981 368.711 C 77.264 368.888 77.554 369.054 77.848 369.208 C 78.871 369.747 79.965 370.157 81.103 370.44 C 81.147 370.593 81.19 370.753 81.229 370.916 C 82.121 374.637 81.358 378.14 80.547 381.851 C 79.844 385.065 79.129 388.375 79.606 391.819 L 78.472 391.795 C 78.194 391.79 78.013 392.089 78.148 392.333 L 80.065 395.812 C 80.2 396.057 80.549 396.064 80.693 395.825 L 82.747 392.425 Z  M 101.838 362.924 C 100.914 364.335 99.372 365.317 97.637 365.736 C 99.707 363.769 101.452 361.316 102.741 358.555 C 102.945 360.092 102.667 361.658 101.838 362.924 Z  M 96.177 365.951 C 95.227 366.004 94.257 365.892 93.327 365.596 C 91.757 365.097 90.304 364.126 89.1 362.815 C 90.103 362.224 91.03 361.433 91.813 360.474 C 93.443 358.475 94.505 355.779 94.967 352.462 C 94.988 352.316 95.007 352.169 95.024 352.023 C 96.583 351.979 98.131 352.35 99.593 353.328 C 100.972 354.252 101.95 355.666 102.443 357.212 C 101 360.694 98.822 363.724 96.177 365.951 Z  M 78.19 360.583 C 77.126 361.26 76.027 361.877 74.877 362.386 C 74.781 362.428 74.687 362.469 74.59 362.509 C 73.051 361.332 71.699 359.933 70.565 358.375 C 69.561 354.337 69.994 349.792 71.789 345.572 C 71.955 345.182 72.13 344.802 72.312 344.433 C 73.453 345.224 74.51 346.264 75.536 347.609 C 75.341 348.849 75.28 350.203 75.349 351.691 C 75.496 354.864 76.175 357.41 77.422 359.475 C 77.657 359.864 77.914 360.234 78.19 360.583 Z  M 80.265 360.165 C 80.25 360.594 80.211 361.02 80.152 361.438 C 79.897 361.226 79.652 360.996 79.417 360.751 C 79.702 360.56 79.985 360.364 80.265 360.165 Z  M 73.696 362.845 C 73.344 362.964 72.977 363.072 72.604 363.166 C 72.083 362.338 71.633 361.455 71.263 360.533 C 72.009 361.365 72.823 362.14 73.696 362.845 Z  M 79.769 338.535 C 79.982 338.964 80.196 339.397 80.417 339.825 C 78.808 340.733 77.434 342.246 76.565 344.125 C 76.216 344.878 75.942 345.686 75.74 346.552 C 74.774 345.374 73.771 344.437 72.691 343.704 C 73.934 341.427 75.515 339.572 77.331 338.274 C 77.898 337.867 78.494 337.516 79.108 337.22 C 79.333 337.657 79.552 338.097 79.769 338.535 Z  M 79.856 336.891 C 80.27 336.727 80.691 336.586 81.114 336.472 C 81.111 337.448 81.11 338.427 81.12 339.408 C 80.912 339.003 80.707 338.589 80.499 338.171 C 80.289 337.747 80.076 337.318 79.856 336.891 Z  M 84.579 355.846 C 83.821 355.225 83.259 354.25 83.048 353.109 C 82.403 349.629 82.115 346.064 81.999 342.486 C 82.728 343.503 83.589 344.404 84.682 345.08 C 84.944 345.241 85.216 345.386 85.497 345.51 C 85.23 346.574 85.032 347.746 84.894 349.054 C 84.64 351.454 84.662 353.61 84.959 355.562 C 84.83 355.657 84.704 355.751 84.579 355.846 Z  M 89.954 353.413 C 89.667 354.192 89.305 354.819 88.853 355.332 C 88.003 356.295 86.984 356.71 85.962 356.513 C 85.92 356.319 85.881 356.123 85.846 355.924 C 87.112 355.009 88.503 354.114 89.954 353.413 Z  M 86.476 345.015 C 86.765 344.034 87.122 343.156 87.554 342.351 C 87.713 342.057 87.881 341.774 88.061 341.501 C 88.957 342.496 89.615 343.812 90.043 345.232 C 88.84 345.442 87.605 345.379 86.476 345.015 Z  M 86.836 341.965 C 86.387 342.802 86.016 343.708 85.715 344.714 C 85.509 344.616 85.306 344.507 85.11 344.386 C 83.753 343.548 82.788 342.331 81.958 340.938 C 81.953 340.634 81.948 340.33 81.943 340.026 C 82.125 339.964 82.308 339.91 82.495 339.865 C 84.424 339.393 86.095 339.749 87.467 340.922 C 87.241 341.254 87.031 341.602 86.836 341.965 Z  M 78.119 359.052 C 76.945 357.107 76.305 354.687 76.164 351.653 C 76.114 350.553 76.136 349.531 76.233 348.578 C 76.524 349.005 76.813 349.457 77.1 349.938 C 79.095 353.255 80.131 356.281 80.258 359.164 C 79.802 359.495 79.341 359.82 78.874 360.134 C 78.603 359.796 78.35 359.435 78.119 359.052 Z  M 77.799 349.518 C 77.337 348.746 76.871 348.042 76.398 347.401 C 76.592 346.331 76.893 345.357 77.305 344.468 C 78.1 342.751 79.346 341.371 80.799 340.545 C 80.913 340.752 81.028 340.958 81.147 341.162 C 81.234 345.223 81.511 349.29 82.246 353.258 C 82.479 354.516 83.088 355.608 83.92 356.352 C 83.89 356.376 83.859 356.4 83.829 356.423 L 83.323 356.82 C 82.571 357.409 81.812 358.004 81.039 358.585 C 80.809 355.73 79.742 352.749 77.799 349.518 Z  M 89.465 355.871 C 90.238 354.994 90.684 353.926 90.961 352.963 C 92.023 352.529 93.109 352.215 94.195 352.085 C 94.184 352.172 94.171 352.26 94.159 352.349 C 93.718 355.516 92.716 358.077 91.181 359.959 C 90.427 360.882 89.53 361.636 88.561 362.186 C 87.797 361.227 87.157 360.122 86.682 358.91 C 86.486 358.41 86.315 357.896 86.171 357.363 C 87.351 357.462 88.524 356.938 89.465 355.871 Z  M 90.276 352.364 C 88.66 353.071 87.113 354.026 85.706 355.021 C 85.476 353.249 85.478 351.299 85.705 349.14 C 85.835 347.906 86.018 346.802 86.265 345.799 C 87.529 346.198 88.912 346.257 90.253 346.012 C 90.706 347.91 90.765 349.914 90.457 351.536 C 90.402 351.826 90.341 352.102 90.276 352.364 Z  M 91.258 351.687 C 91.584 349.981 91.537 347.856 91.058 345.827 C 92.019 345.559 92.942 345.132 93.767 344.558 C 94.33 346.57 94.508 348.836 94.286 351.245 C 93.248 351.351 92.214 351.616 91.199 351.991 C 91.22 351.887 91.24 351.785 91.258 351.687 Z  M 90.85 345.048 C 90.376 343.451 89.619 341.956 88.546 340.824 C 89.127 340.078 89.791 339.437 90.51 338.924 C 91.552 339.941 92.43 341.193 93.068 342.614 C 93.231 342.979 93.379 343.353 93.513 343.74 C 92.715 344.339 91.802 344.78 90.85 345.048 Z  M 87.951 340.262 C 86.394 338.96 84.45 338.547 82.3 339.072 C 82.178 339.102 82.056 339.136 81.933 339.172 C 81.925 338.207 81.925 337.246 81.931 336.284 C 83.311 336.022 84.699 336.037 85.992 336.352 C 87.4 336.694 88.729 337.392 89.892 338.367 C 89.184 338.891 88.529 339.531 87.951 340.262 Z  M 78.725 336.501 C 78.079 336.813 77.453 337.184 76.856 337.611 C 74.953 338.971 73.298 340.905 72.001 343.268 C 70.442 342.358 68.732 341.899 67.104 341.909 C 68.029 337.891 70.177 334.167 73.21 331.368 C 74.147 331.656 75.016 332.099 75.764 332.693 C 77.016 333.688 77.929 335.049 78.725 336.501 Z  M 71.622 343.99 C 71.417 344.4 71.222 344.821 71.04 345.252 C 69.464 348.956 68.897 352.907 69.393 356.58 C 67.57 353.442 66.546 349.809 66.595 346.174 C 66.605 345.014 66.72 343.86 66.933 342.726 C 68.478 342.68 70.124 343.109 71.622 343.99 Z  M 65.779 346.166 L 65.779 346.348 C 65.779 350.78 67.245 355.143 69.812 358.723 C 70.237 360.368 70.902 361.93 71.761 363.35 C 69.324 363.806 66.628 363.619 64.47 362.103 C 61.845 360.257 60.76 356.985 60.311 354.563 C 59.858 352.12 59.894 350.042 60.42 348.209 C 61.048 346.032 62.409 344.28 64.156 343.402 C 64.756 343.101 65.408 342.901 66.092 342.8 C 65.895 343.909 65.789 345.035 65.779 346.166 Z  M 74.466 363.434 C 74.543 363.491 74.621 363.547 74.698 363.602 C 75.101 363.887 75.493 364.157 75.872 364.416 C 76.767 365.03 77.577 365.586 78.289 366.185 C 77.887 366.75 77.429 367.26 76.926 367.704 C 75.451 366.7 74.145 365.395 73.081 363.883 C 73.56 363.753 74.024 363.602 74.466 363.434 Z  M 76.333 363.744 C 76.015 363.526 75.689 363.3 75.353 363.066 C 76.529 362.535 77.648 361.902 78.726 361.208 C 79.118 361.629 79.539 362.009 79.983 362.345 C 79.726 363.48 79.301 364.548 78.737 365.497 C 78.01 364.893 77.201 364.339 76.333 363.744 Z  M 80.888 361.988 C 81.014 361.291 81.081 360.575 81.087 359.848 L 81.087 359.764 C 81.087 359.699 81.086 359.634 81.086 359.568 C 82.017 358.879 82.927 358.166 83.826 357.462 L 84.333 357.066 C 84.423 356.994 84.513 356.924 84.604 356.853 C 84.819 356.981 85.043 357.085 85.277 357.169 C 85.451 357.876 85.666 358.554 85.921 359.207 C 86.406 360.439 87.051 361.57 87.821 362.561 C 86.623 363.096 85.35 363.326 84.123 363.198 C 82.996 363.078 81.889 362.656 80.888 361.988 Z  M 102.821 342.804 C 104.516 346.102 104.656 350.46 103.216 355.078 C 103.109 355.417 102.996 355.756 102.875 356.09 C 102.272 354.72 101.313 353.498 100.047 352.652 C 98.451 351.584 96.781 351.167 95.11 351.195 C 95.336 348.608 95.111 346.175 94.46 344.02 C 94.85 343.683 95.208 343.309 95.529 342.899 C 96.614 341.511 97.248 339.803 97.421 338.02 C 99.746 338.866 101.745 340.713 102.821 342.804 Z  M 96.627 337.774 C 96.492 339.465 95.909 341.087 94.885 342.398 C 94.669 342.676 94.431 342.936 94.178 343.178 C 94.065 342.871 93.943 342.573 93.811 342.28 C 93.16 340.827 92.269 339.538 91.213 338.475 C 91.662 338.22 92.127 338.014 92.602 337.864 C 93.956 337.433 95.331 337.445 96.627 337.774 Z  M 86.069 326.548 C 89.932 326.885 93.464 328.987 95.287 332.03 C 96.191 333.541 96.645 335.259 96.657 336.948 C 95.269 336.62 93.803 336.626 92.356 337.085 C 91.749 337.279 91.158 337.551 90.593 337.895 C 89.292 336.76 87.786 335.95 86.183 335.56 C 84.828 335.229 83.378 335.203 81.937 335.455 C 81.942 334.532 81.953 333.609 81.963 332.693 C 81.981 331.054 81.999 329.416 81.999 327.785 C 81.999 327.45 81.998 327.117 81.996 326.782 C 83.363 326.513 84.734 326.431 86.069 326.548 Z  M 75.471 329.569 C 77.279 328.338 79.219 327.459 81.182 326.965 C 81.19 328.865 81.169 330.772 81.147 332.683 C 81.136 333.662 81.126 334.644 81.119 335.63 C 80.564 335.767 80.014 335.947 79.473 336.168 C 78.629 334.618 77.652 333.153 76.271 332.055 C 75.569 331.497 74.772 331.06 73.914 330.747 C 74.412 330.329 74.932 329.935 75.471 329.569 Z  M 61.654 363.758 C 58.017 358.608 56.344 352.593 56.932 346.816 C 57.606 340.259 60.886 334.783 65.707 332.171 C 67.757 331.06 70.135 330.724 72.271 331.135 C 69.266 334.055 67.152 337.866 66.257 341.958 C 65.385 342.054 64.551 342.291 63.79 342.672 C 61.84 343.653 60.327 345.589 59.637 347.984 C 59.074 349.943 59.032 352.144 59.509 354.712 C 59.986 357.282 61.152 360.767 64.002 362.77 C 66.458 364.496 69.525 364.653 72.232 364.087 C 73.336 365.718 74.703 367.134 76.256 368.231 C 76.074 368.361 75.887 368.481 75.693 368.593 C 70.137 371.819 64.798 368.21 61.654 363.758 Z  M 78.228 368.486 C 78.029 368.382 77.833 368.271 77.639 368.156 C 78.098 367.731 78.519 367.253 78.897 366.732 C 79.683 367.495 80.321 368.362 80.785 369.51 C 79.895 369.254 79.037 368.914 78.228 368.486 Z  M 81.743 369.752 C 81.201 368.144 80.381 367.008 79.357 366.044 C 79.95 365.076 80.408 363.99 80.702 362.838 C 81.743 363.479 82.878 363.885 84.038 364.007 C 85.478 364.16 86.971 363.87 88.359 363.209 C 89.686 364.704 91.313 365.811 93.081 366.374 C 93.757 366.588 94.452 366.714 95.147 366.759 C 94.661 367.115 94.161 367.444 93.649 367.745 C 89.987 369.902 85.62 370.59 81.743 369.752 Z " fill="rgb(255,255,255)"/></svg>