<?xml version="1.0" encoding="UTF-8" standalone="no"?><!-- Generator: Gravit.io --><svg xmlns="http://www.w3.org/2000/svg" xmlns:xlink="http://www.w3.org/1999/xlink" style="isolation:isolate" viewBox="1012 692.894 108.623 107.908" width="108.623pt" height="107.908pt"><g><g><g><g><g><path d=" M 1118.281 787.218 L 1114.841 787.218 C 1102.613 787.204 1092.703 777.295 1092.689 765.067 L 1092.689 755.522 L 1095.251 755.509 L 1095.106 765.534 C 1095.106 775.251 1105.294 784.712 1115.006 784.712 L 1117.621 783.986 L 1118.281 787.218 Z " fill="rgb(255,255,255)"/></g><g><path d=" M 1118.281 800.802 L 1099.795 800.802 C 1087.567 800.788 1077.658 790.879 1077.644 778.651 L 1077.644 755.522 L 1080.144 755.509 L 1080.144 779.191 C 1080.144 788.908 1090.477 798.66 1100.194 798.66 L 1118.065 798.66 L 1118.281 800.802 Z " fill="rgb(255,255,255)"/></g><g><path d=" M 1065.966 798.39 L 1063.433 798.366 L 1063.288 755.796 L 1065.966 755.373 L 1065.966 798.39 Z " fill="rgb(255,255,255)"/></g><g><path d=" M 1027.691 798.08 L 1012 798.225 L 1012.119 796.407 L 1027.919 796.407 C 1037.648 796.396 1045.532 788.512 1045.543 778.783 L 1045.543 755.66 L 1048.183 755.66 L 1048.037 778.76 C 1048.032 790.972 1039.905 798.08 1027.691 798.08 Z " fill="rgb(255,255,255)"/></g><g><path d=" M 1015.146 785.86 L 1013.258 784.407 L 1014.377 782.966 L 1015.129 782.966 C 1024.858 782.955 1032.742 775.071 1032.753 765.342 L 1032.753 755.797 L 1035.392 755.652 L 1035.342 765.373 C 1035.342 777.592 1027.36 785.86 1015.146 785.86 Z " fill="rgb(255,255,255)"/></g></g><g><path d=" M 1101.034 756.391 L 1031.464 756.391 C 1023.034 756.39 1015.99 749.973 1015.206 741.579 C 1014.422 733.186 1020.155 725.575 1028.439 724.012 C 1024.434 713.519 1028.615 701.669 1038.319 696.014 C 1048.023 690.36 1060.395 692.563 1067.549 701.221 C 1073.841 698.347 1081.099 698.495 1087.268 701.625 C 1093.437 704.754 1097.845 710.522 1099.243 717.297 Q 1100.143 717.214 1101.034 717.213 C 1111.853 717.213 1120.623 725.983 1120.623 736.802 C 1120.623 747.621 1111.853 756.391 1101.034 756.391 L 1101.034 756.391 Z  M 1029.222 725.908 C 1022.648 725.908 1016.872 733.208 1016.872 739.708 C 1016.872 746.208 1025.33 754.528 1031.837 754.528 L 1101.576 754.819 C 1109.876 754.819 1119.076 745.069 1119.076 736.765 C 1119.076 728.461 1112.247 721.074 1103.82 720.057 C 1102.771 719.931 1100.241 719.242 1099.171 719.476 L 1097.282 719.912 L 1097.137 718.023 C 1096.217 708.671 1088.678 701.023 1079.266 701.023 C 1076.138 701.023 1071.395 701.069 1068.66 702.623 L 1066.917 704.223 L 1065.755 702.189 C 1062.306 697.204 1056.249 694.78 1050.209 694.78 C 1040.052 694.78 1028.932 703.548 1028.932 713.706 C 1028.932 716.867 1029.255 721.839 1030.82 724.606 L 1031.176 725.876 L 1031.176 725.876 L 1029.222 725.908 Z " fill="rgb(255,255,255)"/></g></g></g></g></svg>