<?xml version="1.0" encoding="UTF-8" standalone="no"?><!-- Generator: Gravit.io --><svg xmlns="http://www.w3.org/2000/svg" xmlns:xlink="http://www.w3.org/1999/xlink" style="isolation:isolate" viewBox="847.998 681.999 96.487 129.999" width="96.487pt" height="129.999pt"><g><g><path d=" M 914.864 747.061 C 914.687 742.737 909.496 742.815 906.292 743.277 C 906.075 743.307 905.62 743.447 905.62 743.739 L 905.62 751.024 C 905.624 751.123 905.668 751.217 905.742 751.283 C 905.815 751.349 905.913 751.383 906.012 751.376 C 909.249 751.376 914.679 751.509 914.864 747.062 C 914.889 746.475 913.664 746.675 913.647 747.174 C 913.494 750.863 909.156 750.561 906.447 750.561 L 906.839 750.913 L 906.839 743.628 L 906.166 744.091 C 908.855 743.703 913.494 743.449 913.647 747.173 C 913.671 747.766 914.884 747.549 914.864 747.061 Z " fill="rgb(255,255,255)" vector-effect="non-scaling-stroke" stroke-width="1" stroke="rgb(255,255,255)" stroke-linejoin="miter" stroke-linecap="butt" stroke-miterlimit="10"/></g><g><path d=" M 939.367 713.213 L 939.367 698.586 C 939.367 694.929 940.413 689.481 936.267 687.574 C 934.251 686.644 931.221 687.122 929.107 687.122 L 877.442 687.122 C 875.519 687.122 873.094 686.822 871.262 687.603 C 867.597 689.172 864.421 693.882 861.71 696.594 C 858.655 699.648 854.072 702.718 853.362 707.207 C 852.543 712.38 853.362 718.276 853.362 723.525 C 853.365 723.613 853.404 723.696 853.469 723.755 C 853.535 723.814 853.621 723.844 853.709 723.838 C 857.393 723.838 858.137 722.79 858.519 726.359 C 858.909 729.991 857.568 728.781 854.093 728.781 C 853.88 728.781 853.362 728.881 853.362 729.193 L 853.362 777.549 C 853.362 785.027 852.972 792.63 853.362 800.101 C 853.619 805.053 856.326 806.459 860.841 806.629 C 879.308 807.32 897.928 806.629 916.407 806.629 C 921.93 806.629 928.145 807.46 933.619 806.629 C 939.282 805.769 939.365 801.869 939.365 797.102 L 939.365 742.162 C 939.362 742.074 939.323 741.991 939.258 741.932 C 939.192 741.873 939.106 741.843 939.018 741.849 C 938.025 741.849 934.645 742.397 934.062 741.849 C 934.109 741.238 934.092 740.624 934.013 740.017 C 933.188 736.293 934.013 731.502 934.013 727.687 C 934.013 723.757 933.727 719.71 934.013 715.787 C 934.038 715.433 934.119 713.187 933.845 713.462 C 933.863 713.444 937.817 713.62 938.633 713.62 C 939.111 713.62 939.738 712.895 939.018 712.895 L 933.665 712.895 C 933.452 712.895 932.934 712.995 932.934 713.307 L 932.934 742.257 C 932.937 742.345 932.976 742.428 933.041 742.487 C 933.107 742.546 933.193 742.576 933.281 742.57 C 936.913 742.57 937.443 741.509 938.281 743.862 C 939.15 746.29 938.281 750.932 938.281 753.487 L 938.281 782.55 C 938.281 788.029 939.812 796.084 938.281 801.402 C 936.337 808.157 926.494 805.902 921.563 805.902 L 865.514 805.902 C 859.749 805.902 854.849 805.644 854.443 798.402 C 854.015 790.773 854.443 782.99 854.443 775.351 L 854.443 742.077 C 854.443 738.51 854.109 734.736 854.443 731.177 C 854.48 730.777 854.197 729.52 854.443 729.19 C 853.991 729.795 857.727 729.504 858.869 729.504 C 859.082 729.504 859.6 729.404 859.6 729.092 L 859.6 723.426 C 859.597 723.338 859.558 723.255 859.493 723.196 C 859.428 723.136 859.341 723.106 859.253 723.112 C 856.577 723.112 855.237 723.798 854.443 722.067 C 853.355 719.7 854.443 714.277 854.443 711.654 C 854.443 704.691 857.343 702.112 862.097 697.361 C 865.418 694.04 869.056 688.638 873.946 687.844 C 878.392 687.121 883.566 687.844 888.059 687.844 L 928.728 687.844 C 934.407 687.844 938.288 689.544 938.288 696.214 L 938.288 713.307 C 938.288 713.835 939.367 713.652 939.367 713.213 Z " fill="rgb(255,255,255)" vector-effect="non-scaling-stroke" stroke-width="1" stroke="rgb(255,255,255)" stroke-linejoin="miter" stroke-linecap="butt" stroke-miterlimit="10"/><path d=" M 915.228 695.59 C 915.61 694.672 920.514 695.23 921.728 695.23 C 924.01 695.23 923.582 696.23 923.582 698.242 L 923.582 706.693 C 923.582 707.453 924.132 711.211 923.6 711.819 C 922.938 712.577 918.319 711.964 917.114 711.964 C 914.832 711.964 915.26 710.964 915.26 708.952 L 915.26 695.483 C 915.26 694.89 914.041 695.096 914.041 695.593 L 914.041 709.317 C 914.041 710.222 913.711 711.892 914.506 712.546 C 915.678 713.511 919.499 712.783 920.844 712.783 C 921.792 712.783 923.775 713.151 924.516 712.266 C 925.309 711.321 924.799 708.89 924.799 707.827 L 924.799 698.966 C 924.799 698.021 925.277 695.64 924.559 694.819 C 923.559 693.67 919.932 694.409 918.636 694.409 C 917.219 694.409 914.757 693.844 914.077 695.484 C 913.829 696.098 915.04 696.043 915.228 695.59 Z " fill="rgb(255,255,255)" vector-effect="non-scaling-stroke" stroke-width="1" stroke="rgb(255,255,255)" stroke-linejoin="miter" stroke-linecap="butt" stroke-miterlimit="10"/><path d=" M 903.69 691.107 C 903.947 690.487 910.353 690.27 911.275 690.749 C 912.675 691.474 912.048 694.149 912.048 695.705 L 912.048 705.592 C 912.048 706.65 912.741 710.96 912.048 711.813 C 911.673 712.27 905.048 712.43 904.34 711.961 C 903.115 711.152 903.732 708.049 903.732 706.632 L 903.732 691.007 C 903.732 690.414 902.513 690.62 902.513 691.117 L 902.513 707.477 C 902.513 708.525 901.94 711.403 902.728 712.329 C 903.728 713.499 907.244 712.786 908.537 712.786 C 909.596 712.786 912.116 713.286 912.988 712.269 C 913.841 711.277 913.271 708.498 913.271 707.369 L 913.271 697.129 C 913.271 695.597 913.889 692.478 913.271 691.011 C 912.508 689.202 909.785 689.941 908.108 689.941 C 906.628 689.941 903.308 689.186 902.549 691.014 C 902.292 691.62 903.502 691.567 903.69 691.107 Z " fill="rgb(255,255,255)" vector-effect="non-scaling-stroke" stroke-width="1" stroke="rgb(255,255,255)" stroke-linejoin="miter" stroke-linecap="butt" stroke-miterlimit="10"/><path d=" M 898.653 738.338 C 902.876 737.603 907.178 737.438 911.444 737.846 C 918.237 738.636 925.505 746.806 915.438 751.525 C 915.306 751.587 915.086 751.73 915.086 751.902 L 915.086 751.995 C 915.08 752.152 915.188 752.29 915.341 752.322 C 923.171 755.102 922.952 764.557 915.148 767.575 C 912.156 768.73 903.819 769.992 900.654 768.433 C 898.832 767.533 899.674 768.785 899.325 766.426 C 899.198 764.616 899.198 762.8 899.325 760.99 L 899.325 737.873 C 899.325 737.28 898.106 737.488 898.106 737.985 L 898.106 768.697 C 898.106 768.93 898.289 769.024 898.498 769.052 C 904.661 769.844 913.181 770.637 918.598 766.843 C 921.012 765.21 922.478 762.501 922.525 759.587 C 922.531 758.446 922.306 757.315 921.863 756.263 C 921.113 754.556 918.952 753.831 918.301 752.494 C 917.366 750.574 919.271 750.724 920.518 748.507 C 921.931 746 921.691 742.888 919.91 740.627 C 915.464 735.059 904.761 736.573 898.781 737.52 C 898.144 737.618 897.829 738.468 898.653 738.338 Z " fill="rgb(255,255,255)" vector-effect="non-scaling-stroke" stroke-width="1" stroke="rgb(255,255,255)" stroke-linejoin="miter" stroke-linecap="butt" stroke-miterlimit="10"/><path d=" M 892.16 695.59 C 892.54 694.672 897.446 695.23 898.66 695.23 C 900.942 695.23 900.514 696.23 900.514 698.242 L 900.514 706.693 C 900.514 707.453 901.062 711.211 900.532 711.819 C 899.87 712.577 895.251 711.964 894.046 711.964 C 891.764 711.964 892.192 710.964 892.192 708.952 L 892.192 695.483 C 892.192 694.89 890.973 695.096 890.973 695.593 L 890.973 709.317 C 890.973 710.222 890.643 711.892 891.438 712.546 C 892.61 713.511 896.429 712.783 897.774 712.783 C 898.724 712.783 900.704 713.151 901.448 712.266 C 902.241 711.321 901.731 708.89 901.731 707.827 L 901.731 698.966 C 901.731 698.021 902.209 695.64 901.491 694.819 C 900.486 693.67 896.863 694.409 895.568 694.409 C 894.151 694.409 891.689 693.844 891.009 695.484 C 890.761 696.098 891.972 696.043 892.16 695.59 Z " fill="rgb(255,255,255)" vector-effect="non-scaling-stroke" stroke-width="1" stroke="rgb(255,255,255)" stroke-linejoin="miter" stroke-linecap="butt" stroke-miterlimit="10"/><path d=" M 887.704 763.845 C 888.937 763.881 890.168 763.715 891.348 763.353 C 891.52 763.31 891.855 763.141 891.855 762.918 L 891.855 756.375 C 891.851 756.276 891.807 756.182 891.734 756.116 C 891.66 756.049 891.562 756.015 891.463 756.022 C 890.611 756.022 888.586 756.412 887.889 756.022 C 886.437 755.21 887.489 756.502 887.031 754.203 C 886.83 753.199 886.83 752.165 887.031 751.161 C 886.654 751.778 886.953 751.261 888.513 751.319 C 890.822 751.407 894.332 750.586 896.474 751.319 C 897.859 751.794 897.591 750.949 897.456 753.538 C 897.318 756.224 897.456 758.949 897.456 761.638 C 897.607 762.996 897.607 764.366 897.456 765.724 C 896.938 767.748 897.889 766.172 896.437 767.469 C 894.447 769.248 888.089 768.846 885.777 768.669 C 882.457 768.557 879.241 767.48 876.524 765.569 C 871.924 762.028 870.38 755.736 871.405 750.201 C 872.401 744.555 876.559 739.987 882.087 738.466 C 885.568 737.434 895.087 736.212 896.141 739.931 C 895.979 741.385 895.607 742.808 895.034 744.155 C 895.819 743.722 891.972 742.908 892.115 742.933 C 889.326 742.372 886.439 742.544 883.737 743.433 C 872.937 747.504 876.662 763.178 887.549 763.84 C 888.099 763.875 888.799 763.072 887.984 763.023 C 881.525 762.63 877.751 757.662 878.647 751.361 C 879.784 743.376 888.8 742.289 895.205 744.793 C 895.591 744.919 896.01 744.729 896.169 744.355 L 897.654 738.696 C 897.699 738.526 897.527 738.419 897.401 738.368 C 886.959 734.161 872.41 738.068 870.186 750.308 C 866.986 767.896 884.967 771.808 898.168 767.754 C 898.338 767.702 898.675 767.554 898.675 767.321 L 898.675 750.854 C 898.671 750.755 898.627 750.661 898.554 750.595 C 898.48 750.528 898.382 750.494 898.283 750.501 L 886.637 750.501 C 886.397 750.501 885.812 750.609 885.812 750.966 L 885.812 756.487 C 885.816 756.586 885.86 756.68 885.933 756.746 C 886.007 756.813 886.105 756.847 886.204 756.84 C 887.474 756.84 890.223 756.513 890.636 757.14 C 890.953 757.617 890.736 759.774 890.636 760.361 C 890.184 762.981 891.981 762.783 887.829 763.031 C 887.172 763.066 886.875 763.895 887.704 763.845 Z " fill="rgb(255,255,255)" vector-effect="non-scaling-stroke" stroke-width="1" stroke="rgb(255,255,255)" stroke-linejoin="miter" stroke-linecap="butt" stroke-miterlimit="10"/><path d=" M 880.632 691.107 C 880.889 690.487 887.295 690.27 888.215 690.749 C 889.615 691.474 888.988 694.149 888.988 695.705 L 888.988 705.592 C 888.988 706.65 889.688 710.96 888.988 711.813 C 888.613 712.27 881.988 712.43 881.28 711.961 C 880.055 711.152 880.672 708.049 880.672 706.632 L 880.672 691.007 C 880.672 690.414 879.453 690.62 879.453 691.117 L 879.453 707.477 C 879.453 708.525 878.88 711.403 879.668 712.329 C 880.668 713.499 884.184 712.786 885.477 712.786 C 886.534 712.786 889.056 713.286 889.926 712.269 C 890.779 711.277 890.209 708.498 890.209 707.369 L 890.209 697.129 C 890.209 695.597 890.829 692.478 890.209 691.011 C 889.446 689.202 886.725 689.941 885.048 689.941 C 883.568 689.941 880.248 689.186 879.489 691.014 C 879.234 691.62 880.444 691.567 880.632 691.107 Z " fill="rgb(255,255,255)" vector-effect="non-scaling-stroke" stroke-width="1" stroke="rgb(255,255,255)" stroke-linejoin="miter" stroke-linecap="butt" stroke-miterlimit="10"/><path d=" M 869.092 695.59 C 869.472 694.672 874.376 695.23 875.592 695.23 C 877.876 695.23 877.446 696.23 877.446 698.242 L 877.446 706.693 C 877.446 707.453 877.996 711.211 877.464 711.819 C 876.802 712.577 872.183 711.964 870.98 711.964 C 868.698 711.964 869.126 710.964 869.126 708.952 L 869.126 695.483 C 869.126 694.89 867.907 695.096 867.907 695.593 L 867.907 709.317 C 867.907 710.222 867.577 711.892 868.37 712.546 C 869.544 713.511 873.363 712.783 874.708 712.783 C 875.657 712.783 877.639 713.151 878.38 712.266 C 879.174 711.321 878.663 708.89 878.663 707.827 L 878.663 698.966 C 878.663 698.021 879.143 695.64 878.425 694.819 C 877.42 693.67 873.796 694.409 872.501 694.409 C 871.084 694.409 868.622 693.844 867.944 695.484 C 867.694 696.098 868.904 696.043 869.092 695.59 Z " fill="rgb(255,255,255)" vector-effect="non-scaling-stroke" stroke-width="1" stroke="rgb(255,255,255)" stroke-linejoin="miter" stroke-linecap="butt" stroke-miterlimit="10"/><path d=" M 858.547 722.024 C 857.478 721.581 858.085 717.536 858.085 716.646 L 858.085 709.603 C 858.003 709.076 857.994 708.54 858.057 708.011 C 858.282 707.711 859.532 707.868 860.077 707.868 C 861.306 707.868 865.361 707.193 866.216 708.068 C 866.964 708.833 866.404 712.219 866.404 713.219 L 866.404 720.264 C 866.464 720.84 866.483 721.42 866.461 721.999 C 866.261 722.199 864.739 721.999 864.412 721.999 L 858.412 721.999 C 857.872 721.999 857.165 722.816 857.979 722.816 L 863.979 722.816 C 864.879 722.816 866.658 723.133 867.34 722.301 C 868.067 721.413 867.623 719.32 867.623 718.307 L 867.623 710.462 C 867.623 709.629 867.953 707.942 867.216 707.313 C 866.178 706.428 863.09 707.051 861.885 707.051 C 860.768 707.051 858.441 706.569 857.426 707.351 C 856.526 708.038 856.866 709.588 856.866 710.575 L 856.866 718.93 C 856.866 720.285 856.366 722.182 857.836 722.792 C 858.306 722.982 859.242 722.31 858.547 722.024 Z " fill="rgb(255,255,255)" vector-effect="non-scaling-stroke" stroke-width="1" stroke="rgb(255,255,255)" stroke-linejoin="miter" stroke-linecap="butt" stroke-miterlimit="10"/><path d=" M 928.219 797.425 L 872.526 797.425 C 870.858 797.425 866.52 798.43 865.012 797.425 C 862.683 795.875 869.182 796.11 869.904 796.11 L 920.71 796.11 C 922.266 796.11 924.41 795.655 925.918 796.11 C 927.906 796.71 927.513 795.102 927.513 797.89 C 927.513 798.483 928.551 798.277 928.551 797.78 L 928.551 795.646 C 928.555 795.554 928.522 795.465 928.459 795.398 C 928.396 795.331 928.308 795.293 928.216 795.293 L 864.912 795.293 C 864.706 795.293 864.212 795.4 864.212 795.756 L 864.212 797.89 C 864.208 797.982 864.241 798.071 864.304 798.138 C 864.367 798.204 864.454 798.242 864.546 798.243 L 927.854 798.243 C 928.31 798.243 928.912 797.425 928.219 797.425 Z " fill="rgb(255,255,255)" vector-effect="non-scaling-stroke" stroke-width="1" stroke="rgb(255,255,255)" stroke-linejoin="miter" stroke-linecap="butt" stroke-miterlimit="10"/><path d=" M 926.819 711.992 C 925.735 711.544 926.357 707.505 926.357 706.583 L 926.357 698.133 C 926.238 697.366 926.238 696.586 926.357 695.819 C 926.704 695.019 926.492 695.23 927.776 695.23 C 929.076 695.23 933.554 694.508 934.476 695.43 C 935.256 696.208 934.676 699.561 934.676 700.611 L 934.676 709.062 C 934.795 709.829 934.795 710.609 934.676 711.376 C 934.329 712.176 934.541 711.963 933.257 711.963 L 926.679 711.963 C 926.139 711.963 925.432 712.781 926.246 712.781 L 933.076 712.781 C 934.27 712.781 935.366 712.924 935.876 711.654 C 936.396 710.354 935.894 707.954 935.894 706.58 L 935.894 697.88 C 935.894 697.008 936.231 695.336 935.487 694.68 C 934.367 693.68 930.704 694.417 929.403 694.417 C 928.388 694.417 926.231 693.997 925.421 694.934 C 924.658 695.816 925.138 698.068 925.138 699.085 L 925.138 708.797 C 925.138 710.171 924.611 712.143 926.108 712.763 C 926.576 712.95 927.514 712.28 926.819 711.992 Z " fill="rgb(255,255,255)" vector-effect="non-scaling-stroke" stroke-width="1" stroke="rgb(255,255,255)" stroke-linejoin="miter" stroke-linecap="butt" stroke-miterlimit="10"/></g><g><path d=" M 915.542 758.731 C 915.322 753.903 910.029 753.972 906.382 753.972 C 906.144 753.972 905.557 754.08 905.557 754.435 L 905.557 763.25 C 905.557 763.48 905.739 763.58 905.949 763.603 C 909.72 764.01 915.331 763.611 915.542 758.73 C 915.569 758.143 914.342 758.342 914.325 758.842 C 914.142 763.011 909.608 763.134 906.382 762.786 L 906.775 763.139 L 906.775 754.331 L 905.948 754.796 C 909.139 754.796 914.126 754.511 914.324 758.85 C 914.352 759.442 915.565 759.225 915.542 758.731 Z " fill="rgb(255,255,255)" vector-effect="non-scaling-stroke" stroke-width="1" stroke="rgb(255,255,255)" stroke-linejoin="miter" stroke-linecap="butt" stroke-miterlimit="10"/></g></g></svg>